<mxfile host="app.diagrams.net" agent="Mozilla/5.0 (Windows NT 10.0; Win64; x64) AppleWebKit/537.36 (KHTML, like Gecko) Chrome/128.0.0.0 Safari/537.36" version="24.7.12">
  <diagram name="Page-1" id="b520641d-4fe3-3701-9064-5fc419738815">
    <mxGraphModel dx="794" dy="412" grid="1" gridSize="10" guides="1" tooltips="1" connect="1" arrows="1" fold="1" page="1" pageScale="1" pageWidth="1100" pageHeight="850" background="none" math="0" shadow="0">
      <root>
        <mxCell id="0" />
        <mxCell id="1" parent="0" />
        <mxCell id="0nKe3YCWOSIp506qaKpo-5" value="Books" style="shape=table;startSize=30;container=1;collapsible=0;childLayout=tableLayout;fixedRows=1;rowLines=0;fontStyle=0;strokeColor=default;fontSize=16;" parent="1" vertex="1">
          <mxGeometry x="500" y="60" width="400" height="150" as="geometry" />
        </mxCell>
        <mxCell id="0nKe3YCWOSIp506qaKpo-6" value="" style="shape=tableRow;horizontal=0;startSize=0;swimlaneHead=0;swimlaneBody=0;top=0;left=0;bottom=0;right=0;collapsible=0;dropTarget=0;fillColor=none;points=[[0,0.5],[1,0.5]];portConstraint=eastwest;strokeColor=inherit;fontSize=16;" parent="0nKe3YCWOSIp506qaKpo-5" vertex="1">
          <mxGeometry y="30" width="400" height="30" as="geometry" />
        </mxCell>
        <mxCell id="0nKe3YCWOSIp506qaKpo-7" value="&lt;b&gt;PK&lt;/b&gt;" style="shape=partialRectangle;html=1;whiteSpace=wrap;connectable=0;fillColor=none;top=0;left=0;bottom=0;right=0;overflow=hidden;pointerEvents=1;strokeColor=inherit;fontSize=16;" parent="0nKe3YCWOSIp506qaKpo-6" vertex="1">
          <mxGeometry width="89" height="30" as="geometry">
            <mxRectangle width="89" height="30" as="alternateBounds" />
          </mxGeometry>
        </mxCell>
        <mxCell id="0nKe3YCWOSIp506qaKpo-8" value="book_id INT NOT NULL" style="shape=partialRectangle;html=1;whiteSpace=wrap;connectable=0;fillColor=none;top=0;left=0;bottom=0;right=0;align=left;spacingLeft=6;overflow=hidden;strokeColor=inherit;fontSize=16;" parent="0nKe3YCWOSIp506qaKpo-6" vertex="1">
          <mxGeometry x="89" width="311" height="30" as="geometry">
            <mxRectangle width="311" height="30" as="alternateBounds" />
          </mxGeometry>
        </mxCell>
        <mxCell id="0nKe3YCWOSIp506qaKpo-59" style="shape=tableRow;horizontal=0;startSize=0;swimlaneHead=0;swimlaneBody=0;top=0;left=0;bottom=0;right=0;collapsible=0;dropTarget=0;fillColor=none;points=[[0,0.5],[1,0.5]];portConstraint=eastwest;strokeColor=inherit;fontSize=16;" parent="0nKe3YCWOSIp506qaKpo-5" vertex="1">
          <mxGeometry y="60" width="400" height="30" as="geometry" />
        </mxCell>
        <mxCell id="0nKe3YCWOSIp506qaKpo-60" value="FK" style="shape=partialRectangle;html=1;whiteSpace=wrap;connectable=0;fillColor=none;top=0;left=0;bottom=0;right=0;overflow=hidden;pointerEvents=1;strokeColor=inherit;fontSize=16;" parent="0nKe3YCWOSIp506qaKpo-59" vertex="1">
          <mxGeometry width="89" height="30" as="geometry">
            <mxRectangle width="89" height="30" as="alternateBounds" />
          </mxGeometry>
        </mxCell>
        <mxCell id="0nKe3YCWOSIp506qaKpo-61" value="author_id INT NOT NULL" style="shape=partialRectangle;html=1;whiteSpace=wrap;connectable=0;fillColor=none;top=0;left=0;bottom=0;right=0;align=left;spacingLeft=6;overflow=hidden;strokeColor=inherit;fontSize=16;" parent="0nKe3YCWOSIp506qaKpo-59" vertex="1">
          <mxGeometry x="89" width="311" height="30" as="geometry">
            <mxRectangle width="311" height="30" as="alternateBounds" />
          </mxGeometry>
        </mxCell>
        <mxCell id="0nKe3YCWOSIp506qaKpo-9" value="" style="shape=tableRow;horizontal=0;startSize=0;swimlaneHead=0;swimlaneBody=0;top=0;left=0;bottom=0;right=0;collapsible=0;dropTarget=0;fillColor=none;points=[[0,0.5],[1,0.5]];portConstraint=eastwest;strokeColor=inherit;fontSize=16;" parent="0nKe3YCWOSIp506qaKpo-5" vertex="1">
          <mxGeometry y="90" width="400" height="30" as="geometry" />
        </mxCell>
        <mxCell id="0nKe3YCWOSIp506qaKpo-10" value="" style="shape=partialRectangle;html=1;whiteSpace=wrap;connectable=0;fillColor=none;top=0;left=0;bottom=0;right=0;overflow=hidden;strokeColor=inherit;fontSize=16;" parent="0nKe3YCWOSIp506qaKpo-9" vertex="1">
          <mxGeometry width="89" height="30" as="geometry">
            <mxRectangle width="89" height="30" as="alternateBounds" />
          </mxGeometry>
        </mxCell>
        <mxCell id="0nKe3YCWOSIp506qaKpo-11" value="name VARCHAR(75) NOT NULL" style="shape=partialRectangle;html=1;whiteSpace=wrap;connectable=0;fillColor=none;top=0;left=0;bottom=0;right=0;align=left;spacingLeft=6;overflow=hidden;strokeColor=inherit;fontSize=16;" parent="0nKe3YCWOSIp506qaKpo-9" vertex="1">
          <mxGeometry x="89" width="311" height="30" as="geometry">
            <mxRectangle width="311" height="30" as="alternateBounds" />
          </mxGeometry>
        </mxCell>
        <mxCell id="0nKe3YCWOSIp506qaKpo-12" value="" style="shape=tableRow;horizontal=0;startSize=0;swimlaneHead=0;swimlaneBody=0;top=0;left=0;bottom=0;right=0;collapsible=0;dropTarget=0;fillColor=none;points=[[0,0.5],[1,0.5]];portConstraint=eastwest;strokeColor=inherit;fontSize=16;" parent="0nKe3YCWOSIp506qaKpo-5" vertex="1">
          <mxGeometry y="120" width="400" height="30" as="geometry" />
        </mxCell>
        <mxCell id="0nKe3YCWOSIp506qaKpo-13" value="" style="shape=partialRectangle;html=1;whiteSpace=wrap;connectable=0;fillColor=none;top=0;left=0;bottom=0;right=0;overflow=hidden;strokeColor=inherit;fontSize=16;" parent="0nKe3YCWOSIp506qaKpo-12" vertex="1">
          <mxGeometry width="89" height="30" as="geometry">
            <mxRectangle width="89" height="30" as="alternateBounds" />
          </mxGeometry>
        </mxCell>
        <mxCell id="0nKe3YCWOSIp506qaKpo-14" value="publication_year YEAR NOT NULL" style="shape=partialRectangle;html=1;whiteSpace=wrap;connectable=0;fillColor=none;top=0;left=0;bottom=0;right=0;align=left;spacingLeft=6;overflow=hidden;strokeColor=inherit;fontSize=16;" parent="0nKe3YCWOSIp506qaKpo-12" vertex="1">
          <mxGeometry x="89" width="311" height="30" as="geometry">
            <mxRectangle width="311" height="30" as="alternateBounds" />
          </mxGeometry>
        </mxCell>
        <mxCell id="0nKe3YCWOSIp506qaKpo-15" value="Transactions" style="shape=table;startSize=30;container=1;collapsible=0;childLayout=tableLayout;fixedRows=1;rowLines=0;fontStyle=0;strokeColor=default;fontSize=16;" parent="1" vertex="1">
          <mxGeometry x="570" y="260" width="450" height="120" as="geometry" />
        </mxCell>
        <mxCell id="0nKe3YCWOSIp506qaKpo-16" value="" style="shape=tableRow;horizontal=0;startSize=0;swimlaneHead=0;swimlaneBody=0;top=0;left=0;bottom=0;right=0;collapsible=0;dropTarget=0;fillColor=none;points=[[0,0.5],[1,0.5]];portConstraint=eastwest;strokeColor=inherit;fontSize=16;" parent="0nKe3YCWOSIp506qaKpo-15" vertex="1">
          <mxGeometry y="30" width="450" height="30" as="geometry" />
        </mxCell>
        <mxCell id="0nKe3YCWOSIp506qaKpo-17" value="&lt;b&gt;PK&lt;/b&gt;" style="shape=partialRectangle;html=1;whiteSpace=wrap;connectable=0;fillColor=none;top=0;left=0;bottom=0;right=0;overflow=hidden;pointerEvents=1;strokeColor=inherit;fontSize=16;" parent="0nKe3YCWOSIp506qaKpo-16" vertex="1">
          <mxGeometry width="100" height="30" as="geometry">
            <mxRectangle width="100" height="30" as="alternateBounds" />
          </mxGeometry>
        </mxCell>
        <mxCell id="0nKe3YCWOSIp506qaKpo-18" value="transaction_id INT AUTO_INCREMENT" style="shape=partialRectangle;html=1;whiteSpace=wrap;connectable=0;fillColor=none;top=0;left=0;bottom=0;right=0;align=left;spacingLeft=6;overflow=hidden;strokeColor=inherit;fontSize=16;" parent="0nKe3YCWOSIp506qaKpo-16" vertex="1">
          <mxGeometry x="100" width="350" height="30" as="geometry">
            <mxRectangle width="350" height="30" as="alternateBounds" />
          </mxGeometry>
        </mxCell>
        <mxCell id="0nKe3YCWOSIp506qaKpo-19" value="" style="shape=tableRow;horizontal=0;startSize=0;swimlaneHead=0;swimlaneBody=0;top=0;left=0;bottom=0;right=0;collapsible=0;dropTarget=0;fillColor=none;points=[[0,0.5],[1,0.5]];portConstraint=eastwest;strokeColor=inherit;fontSize=16;" parent="0nKe3YCWOSIp506qaKpo-15" vertex="1">
          <mxGeometry y="60" width="450" height="30" as="geometry" />
        </mxCell>
        <mxCell id="0nKe3YCWOSIp506qaKpo-20" value="FK1" style="shape=partialRectangle;html=1;whiteSpace=wrap;connectable=0;fillColor=none;top=0;left=0;bottom=0;right=0;overflow=hidden;strokeColor=inherit;fontSize=16;" parent="0nKe3YCWOSIp506qaKpo-19" vertex="1">
          <mxGeometry width="100" height="30" as="geometry">
            <mxRectangle width="100" height="30" as="alternateBounds" />
          </mxGeometry>
        </mxCell>
        <mxCell id="0nKe3YCWOSIp506qaKpo-21" value="book_id INT NOT NULL" style="shape=partialRectangle;html=1;whiteSpace=wrap;connectable=0;fillColor=none;top=0;left=0;bottom=0;right=0;align=left;spacingLeft=6;overflow=hidden;strokeColor=inherit;fontSize=16;" parent="0nKe3YCWOSIp506qaKpo-19" vertex="1">
          <mxGeometry x="100" width="350" height="30" as="geometry">
            <mxRectangle width="350" height="30" as="alternateBounds" />
          </mxGeometry>
        </mxCell>
        <mxCell id="0nKe3YCWOSIp506qaKpo-22" value="" style="shape=tableRow;horizontal=0;startSize=0;swimlaneHead=0;swimlaneBody=0;top=0;left=0;bottom=0;right=0;collapsible=0;dropTarget=0;fillColor=none;points=[[0,0.5],[1,0.5]];portConstraint=eastwest;strokeColor=inherit;fontSize=16;" parent="0nKe3YCWOSIp506qaKpo-15" vertex="1">
          <mxGeometry y="90" width="450" height="30" as="geometry" />
        </mxCell>
        <mxCell id="0nKe3YCWOSIp506qaKpo-23" value="FK2" style="shape=partialRectangle;html=1;whiteSpace=wrap;connectable=0;fillColor=none;top=0;left=0;bottom=0;right=0;overflow=hidden;strokeColor=inherit;fontSize=16;" parent="0nKe3YCWOSIp506qaKpo-22" vertex="1">
          <mxGeometry width="100" height="30" as="geometry">
            <mxRectangle width="100" height="30" as="alternateBounds" />
          </mxGeometry>
        </mxCell>
        <mxCell id="0nKe3YCWOSIp506qaKpo-24" value="customer_id NOT NULL" style="shape=partialRectangle;html=1;whiteSpace=wrap;connectable=0;fillColor=none;top=0;left=0;bottom=0;right=0;align=left;spacingLeft=6;overflow=hidden;strokeColor=inherit;fontSize=16;" parent="0nKe3YCWOSIp506qaKpo-22" vertex="1">
          <mxGeometry x="100" width="350" height="30" as="geometry">
            <mxRectangle width="350" height="30" as="alternateBounds" />
          </mxGeometry>
        </mxCell>
        <mxCell id="0nKe3YCWOSIp506qaKpo-25" value="Customers" style="shape=table;startSize=30;container=1;collapsible=0;childLayout=tableLayout;fixedRows=1;rowLines=0;fontStyle=0;strokeColor=default;fontSize=16;" parent="1" vertex="1">
          <mxGeometry x="40" y="280" width="430" height="120" as="geometry" />
        </mxCell>
        <mxCell id="0nKe3YCWOSIp506qaKpo-26" value="" style="shape=tableRow;horizontal=0;startSize=0;swimlaneHead=0;swimlaneBody=0;top=0;left=0;bottom=0;right=0;collapsible=0;dropTarget=0;fillColor=none;points=[[0,0.5],[1,0.5]];portConstraint=eastwest;strokeColor=inherit;fontSize=16;" parent="0nKe3YCWOSIp506qaKpo-25" vertex="1">
          <mxGeometry y="30" width="430" height="30" as="geometry" />
        </mxCell>
        <mxCell id="0nKe3YCWOSIp506qaKpo-27" value="&lt;b&gt;PK&lt;/b&gt;" style="shape=partialRectangle;html=1;whiteSpace=wrap;connectable=0;fillColor=none;top=0;left=0;bottom=0;right=0;overflow=hidden;pointerEvents=1;strokeColor=inherit;fontSize=16;" parent="0nKe3YCWOSIp506qaKpo-26" vertex="1">
          <mxGeometry width="96" height="30" as="geometry">
            <mxRectangle width="96" height="30" as="alternateBounds" />
          </mxGeometry>
        </mxCell>
        <mxCell id="0nKe3YCWOSIp506qaKpo-28" value="customer_id INT NOT NULL" style="shape=partialRectangle;html=1;whiteSpace=wrap;connectable=0;fillColor=none;top=0;left=0;bottom=0;right=0;align=left;spacingLeft=6;overflow=hidden;strokeColor=inherit;fontSize=16;" parent="0nKe3YCWOSIp506qaKpo-26" vertex="1">
          <mxGeometry x="96" width="334" height="30" as="geometry">
            <mxRectangle width="334" height="30" as="alternateBounds" />
          </mxGeometry>
        </mxCell>
        <mxCell id="0nKe3YCWOSIp506qaKpo-29" value="" style="shape=tableRow;horizontal=0;startSize=0;swimlaneHead=0;swimlaneBody=0;top=0;left=0;bottom=0;right=0;collapsible=0;dropTarget=0;fillColor=none;points=[[0,0.5],[1,0.5]];portConstraint=eastwest;strokeColor=inherit;fontSize=16;" parent="0nKe3YCWOSIp506qaKpo-25" vertex="1">
          <mxGeometry y="60" width="430" height="30" as="geometry" />
        </mxCell>
        <mxCell id="0nKe3YCWOSIp506qaKpo-30" value="" style="shape=partialRectangle;html=1;whiteSpace=wrap;connectable=0;fillColor=none;top=0;left=0;bottom=0;right=0;overflow=hidden;strokeColor=inherit;fontSize=16;" parent="0nKe3YCWOSIp506qaKpo-29" vertex="1">
          <mxGeometry width="96" height="30" as="geometry">
            <mxRectangle width="96" height="30" as="alternateBounds" />
          </mxGeometry>
        </mxCell>
        <mxCell id="0nKe3YCWOSIp506qaKpo-31" value="name VARCHAR(75)" style="shape=partialRectangle;html=1;whiteSpace=wrap;connectable=0;fillColor=none;top=0;left=0;bottom=0;right=0;align=left;spacingLeft=6;overflow=hidden;strokeColor=inherit;fontSize=16;" parent="0nKe3YCWOSIp506qaKpo-29" vertex="1">
          <mxGeometry x="96" width="334" height="30" as="geometry">
            <mxRectangle width="334" height="30" as="alternateBounds" />
          </mxGeometry>
        </mxCell>
        <mxCell id="0nKe3YCWOSIp506qaKpo-32" value="" style="shape=tableRow;horizontal=0;startSize=0;swimlaneHead=0;swimlaneBody=0;top=0;left=0;bottom=0;right=0;collapsible=0;dropTarget=0;fillColor=none;points=[[0,0.5],[1,0.5]];portConstraint=eastwest;strokeColor=inherit;fontSize=16;" parent="0nKe3YCWOSIp506qaKpo-25" vertex="1">
          <mxGeometry y="90" width="430" height="30" as="geometry" />
        </mxCell>
        <mxCell id="0nKe3YCWOSIp506qaKpo-33" value="" style="shape=partialRectangle;html=1;whiteSpace=wrap;connectable=0;fillColor=none;top=0;left=0;bottom=0;right=0;overflow=hidden;strokeColor=inherit;fontSize=16;" parent="0nKe3YCWOSIp506qaKpo-32" vertex="1">
          <mxGeometry width="96" height="30" as="geometry">
            <mxRectangle width="96" height="30" as="alternateBounds" />
          </mxGeometry>
        </mxCell>
        <mxCell id="0nKe3YCWOSIp506qaKpo-34" value="email_address VARCHAR(50) UNIQUE" style="shape=partialRectangle;html=1;whiteSpace=wrap;connectable=0;fillColor=none;top=0;left=0;bottom=0;right=0;align=left;spacingLeft=6;overflow=hidden;strokeColor=inherit;fontSize=16;" parent="0nKe3YCWOSIp506qaKpo-32" vertex="1">
          <mxGeometry x="96" width="334" height="30" as="geometry">
            <mxRectangle width="334" height="30" as="alternateBounds" />
          </mxGeometry>
        </mxCell>
        <mxCell id="0nKe3YCWOSIp506qaKpo-35" value="Authors" style="shape=table;startSize=30;container=1;collapsible=0;childLayout=tableLayout;fixedRows=1;rowLines=0;fontStyle=0;strokeColor=default;fontSize=16;" parent="1" vertex="1">
          <mxGeometry x="70" y="90" width="290" height="90" as="geometry" />
        </mxCell>
        <mxCell id="0nKe3YCWOSIp506qaKpo-36" value="" style="shape=tableRow;horizontal=0;startSize=0;swimlaneHead=0;swimlaneBody=0;top=0;left=0;bottom=0;right=0;collapsible=0;dropTarget=0;fillColor=none;points=[[0,0.5],[1,0.5]];portConstraint=eastwest;strokeColor=inherit;fontSize=16;" parent="0nKe3YCWOSIp506qaKpo-35" vertex="1">
          <mxGeometry y="30" width="290" height="30" as="geometry" />
        </mxCell>
        <mxCell id="0nKe3YCWOSIp506qaKpo-37" value="&lt;b&gt;PK&lt;/b&gt;" style="shape=partialRectangle;html=1;whiteSpace=wrap;connectable=0;fillColor=none;top=0;left=0;bottom=0;right=0;overflow=hidden;pointerEvents=1;strokeColor=inherit;fontSize=16;" parent="0nKe3YCWOSIp506qaKpo-36" vertex="1">
          <mxGeometry width="40" height="30" as="geometry">
            <mxRectangle width="40" height="30" as="alternateBounds" />
          </mxGeometry>
        </mxCell>
        <mxCell id="0nKe3YCWOSIp506qaKpo-38" value="author_id INT NOT NULL" style="shape=partialRectangle;html=1;whiteSpace=wrap;connectable=0;fillColor=none;top=0;left=0;bottom=0;right=0;align=left;spacingLeft=6;overflow=hidden;strokeColor=inherit;fontSize=16;" parent="0nKe3YCWOSIp506qaKpo-36" vertex="1">
          <mxGeometry x="40" width="250" height="30" as="geometry">
            <mxRectangle width="250" height="30" as="alternateBounds" />
          </mxGeometry>
        </mxCell>
        <mxCell id="0nKe3YCWOSIp506qaKpo-42" value="" style="shape=tableRow;horizontal=0;startSize=0;swimlaneHead=0;swimlaneBody=0;top=0;left=0;bottom=0;right=0;collapsible=0;dropTarget=0;fillColor=none;points=[[0,0.5],[1,0.5]];portConstraint=eastwest;strokeColor=inherit;fontSize=16;" parent="0nKe3YCWOSIp506qaKpo-35" vertex="1">
          <mxGeometry y="60" width="290" height="30" as="geometry" />
        </mxCell>
        <mxCell id="0nKe3YCWOSIp506qaKpo-43" value="" style="shape=partialRectangle;html=1;whiteSpace=wrap;connectable=0;fillColor=none;top=0;left=0;bottom=0;right=0;overflow=hidden;strokeColor=inherit;fontSize=16;" parent="0nKe3YCWOSIp506qaKpo-42" vertex="1">
          <mxGeometry width="40" height="30" as="geometry">
            <mxRectangle width="40" height="30" as="alternateBounds" />
          </mxGeometry>
        </mxCell>
        <mxCell id="0nKe3YCWOSIp506qaKpo-44" value="name VARCHAR(75) NOT NULL" style="shape=partialRectangle;html=1;whiteSpace=wrap;connectable=0;fillColor=none;top=0;left=0;bottom=0;right=0;align=left;spacingLeft=6;overflow=hidden;strokeColor=inherit;fontSize=16;" parent="0nKe3YCWOSIp506qaKpo-42" vertex="1">
          <mxGeometry x="40" width="250" height="30" as="geometry">
            <mxRectangle width="250" height="30" as="alternateBounds" />
          </mxGeometry>
        </mxCell>
        <mxCell id="0nKe3YCWOSIp506qaKpo-52" style="edgeStyle=orthogonalEdgeStyle;rounded=0;orthogonalLoop=1;jettySize=auto;html=1;endArrow=ERmany;endFill=0;startArrow=ERone;startFill=0;" parent="1" target="0nKe3YCWOSIp506qaKpo-6" edge="1">
          <mxGeometry relative="1" as="geometry" />
        </mxCell>
        <mxCell id="0nKe3YCWOSIp506qaKpo-64" style="edgeStyle=orthogonalEdgeStyle;rounded=0;orthogonalLoop=1;jettySize=auto;html=1;startArrow=ERmany;startFill=0;endArrow=ERmany;endFill=0;" parent="1" source="0nKe3YCWOSIp506qaKpo-19" target="0nKe3YCWOSIp506qaKpo-6" edge="1">
          <mxGeometry relative="1" as="geometry" />
        </mxCell>
        <mxCell id="0nKe3YCWOSIp506qaKpo-65" style="edgeStyle=orthogonalEdgeStyle;rounded=0;orthogonalLoop=1;jettySize=auto;html=1;entryX=1;entryY=0.5;entryDx=0;entryDy=0;startArrow=ERmany;startFill=0;endArrow=ERmany;endFill=0;" parent="1" source="0nKe3YCWOSIp506qaKpo-22" target="0nKe3YCWOSIp506qaKpo-26" edge="1">
          <mxGeometry relative="1" as="geometry" />
        </mxCell>
        <mxCell id="0nKe3YCWOSIp506qaKpo-66" style="edgeStyle=orthogonalEdgeStyle;rounded=0;orthogonalLoop=1;jettySize=auto;html=1;entryX=1;entryY=0.5;entryDx=0;entryDy=0;startArrow=ERone;startFill=0;endArrow=ERmany;endFill=0;" parent="1" source="0nKe3YCWOSIp506qaKpo-59" target="0nKe3YCWOSIp506qaKpo-42" edge="1">
          <mxGeometry relative="1" as="geometry" />
        </mxCell>
      </root>
    </mxGraphModel>
  </diagram>
</mxfile>
